<svg xmlns="http://www.w3.org/2000/svg" xmlns:xlink="http://www.w3.org/1999/xlink" viewBox="0 0 263 310.03">
  <defs>
    <style>
      .cls-2{fill:#f5dbad}.cls-17{mix-blend-mode:multiply}.cls-5{fill:#1c08a0}.cls-8{fill:none;stroke-miterlimit:10;stroke-width:3px;stroke:#b4a5d7}.cls-9{fill:#5308ab}.cls-13{fill:#be7dde}.shadow{box-shadow: 10px 10px 5px #000;}.cls-17{opacity:.2}.arm_down{ -webkit-animation: armove 3s infinite; animation: armove 3s infinite; animation-direction: alternate;}@keyframes armove {from {transform: rotate(20deg); transform-origin: 28% 20%;} to{rotate(-20deg); transform-origin: 28% 20%;}}@-webkit-keyframes armove {from {transform: rotate(20deg); transform-origin: 15% 10%;} to{rotate(-20deg); transform-origin: 20% 20%;}}
    </style>
    <linearGradient id="linear-gradient" x1="69.99" y1="79.99" x2="137.76" y2="79.99" gradientUnits="userSpaceOnUse">
      <stop offset="0" stop-color="#c78fe3"/>
      <stop offset=".58" stop-color="#cb98e5"/>
      <stop offset=".99" stop-color="#d0a2e7"/>
    </linearGradient>
    <linearGradient id="linear-gradient-2" x1="7.36" y1="114.45" x2="71.58" y2="114.45" xlink:href="#linear-gradient"/>
  </defs>
  <g style="isolation:isolate">
    <g id="Layer_2" data-name="Layer 2">
      <g id="consultoria" >
        <path class="cls-2" d="M18 173.91c-.11-.27-.2-.56-.49-.63-2.88-.77-5-1.61-7.8-2.39a.65.65 0 0 0-.8.58c-.12 2.18-.56 3.6-.8 6.5h-.07v9.58a3.67 3.67 0 0 0 .8 2.29l1.22 3.16c0 .07.88-.55 1-.51l.26-1.33L12 193c.06.07.88-.55 1-.51v-2.1l1 2.61c.06.07.88-.55 1-.51v-2.3c.4 2 .79 3.53 1.18 3.37l1.18-.91a.62.62 0 0 0 .35-.78l-1-5.72a4 4 0 0 1-.11-.81l.31-5s3.74 2.49 4.14 2.68c1.09.2-.99-4.02-3.05-9.11z"/>
        <rect x="59.7" y="8.25" width="180.54" height="112.34" rx="1.46" ry="1.46" fill="#efffff"/>
        <path class="cls-5" d="M64.66 4h170.68A4.66 4.66 0 0 1 240 8.66V19H60V8.66A4.66 4.66 0 0 1 64.66 4z"/>
        <path d="M242.65 211.36l-.65-.11.68-.55z" fill="#1b737c"/>
        <path class="cls-8" d="M144.73 58.21h-21.29M94.52 37.48h18.34l-.15 15.41"/>
        <circle class="cls-9" cx="89" cy="37.48" r="8.11"/>
        <path class="cls-8" d="M171.69 58.24h-20.74M208.02 58.09l-22.3-.01"/>
        <rect class="cls-9" x="169.15" y="51.3" width="23.82" height="13.18" rx="1.9" ry="1.9"/>
        <circle class="cls-9" cx="214.1" cy="57.89" r="8.11"/>
        <path stroke="#9792e3" fill="none" stroke-miterlimit="10" stroke-width="3" d="M147.23 80.86v-22.3"/>
        <rect class="cls-9" x="140.14" y="50.54" width="14.7" height="14.7" rx="2.66" ry="2.66" transform="rotate(45 147.481635 57.888894)"/>
        <circle class="cls-9" cx="147.38" cy="84.19" r="8.11"/>
        <rect class="cls-9" x="100.64" y="51.3" width="23.82" height="13.18" rx="1.9" ry="1.9"/>
        <path d="M54.49 58.77c4.75-6.27 5.72-14.51 5.71-22.06-7.3 10.84-17.56 16.19-21.64 26C37 66.37 38.06 72.18 38 77c5.47-6.1 10.92-12.22 16.49-18.23z" fill="#e59d1f"/>
        <path class="cls-2" d="M61.16 18.38c-3.65 2.83-4.72 6-2.48 8.56.38.41 2 1.42 1.62 1.62-4.46 2.35-2.13 4.9-.6 7.45 0 2.66.57 5.41 0 8a95.57 95.57 0 0 1-2.59 10.69c5.53.49 10.48 4.87 15.68.78-.25-2.55-1.73-5.88-2-8.43.2-.58-.42-1.19.91-1.78.77-.34 4.06-1.45 4.31-2.16.43-1.55.28-4.57-.65-9.47-.17-.91.66-1.77.35-2.55-.42-1.09-3.21-3.09-4.12-3.74-.75-.53-.16-1.86-3.38-5.07-1.8-1.8-4.1-2.68-6.2-4.12-.56-.39-.21.5-.85.22z"/>
        <g id="arm" class="arm_up arm_down">
          <path class="cls-2" d="M129 68.31l6.61 4.39 4.28-4.51c.44.11 4-2 6.64-4 1-.59 5.25-3.06 4.29-3.91-.69-.61-2.72.78-2.71.17 0-.26 3.5-2 3.5-2l-.06-.9c-.7-1.1-5.2 2-4.46 1.19 1.69-1.92 4.4-2.09 2.54-3.84-.25-.23-1 .11-1.06.25.09-.14-3.41 1.9-3.41 1.9-.12-.17 2.6-2 2.6-2 .68-.38.34-.83-.32-1.25-1.19-.78-6.94 3.35-7.33 3.48l-3 1.92-.39-6-1.02-.2z"/>
          <path d="M130.66 63.64c-4.91 3.16-8.72 6.48-13.63 9.63l-3.18 1.94-3.85 2.64-3.62 2.15c-2.73 2.34.12-.38-5.52 3.75-1 .73-2.23-1.81-3.83-3.29a65.77 65.77 0 0 1-9-9.47C83.7 67.14 81.79 56 77 56a3.86 3.86 0 0 0-3.12.29c-2 1.1-4.11 4-3.88 6.86a23.61 23.61 0 0 0 .58 4 51.23 51.23 0 0 1 1 6c.25 1.82 1 5.27 1.86 6.8.58 1 7.47 9.65 7.4 10.84 22.2 15.54 18.94 19 36.24 2.24 7.27-7 14.16-14 20.7-21.76-5.56-5.71-4.63-4.45-7.12-7.63z" fill="url(#linear-gradient)"/>
        </g>
        <path class="cls-13" d="M74.71 55.61q.89 9.15 1.75 18.28C75.88 81.26 75 88.61 74.79 96c-.3 9.71-.38 19.46 0 29.16.2 4.54-.27 10.37.85 14.85 1.27 5.13-2.39 20.6-1 25.71 2 1.14 6.85-1.12 10.18-1.12 4.42-1 8.3-3.94 8.88-5.55.2-.54-2.87-7.72-3.79-10-4.15-8.47-6.14-19.79-7.42-29.09-.89-6.4-.79-21.47-.28-25.34.2.09-1.26-22.57-.9-36.94-.5-.39-6.05-1.68-6.6-2.07z"/>
        <path d="M62.47 18.19C61.25 17.77 60 16.86 58.8 17c-7.44 1-13.67 2.81-19.16 7.87-1.72 1.59-1.7 4.39-1.74 6.58-.12 6.36.43 12.69.72 19 .23 4.7-.77 11.46-.54 16.16 1-.5 3.41-6.94 4.16-7.66 2.68-2.6 4.6-.93 5.69-4 2.48-7 8.4-12.16 12.57-18.25-1.68-2.65-5.34-5.3-.26-7.85.44-.22-.14-1.21-.44-1.72-2.29-3.78-.15-5.92 2.67-8.94z" fill="#e9ae47"/>
        <path class="cls-2" d="M57.16 282.69l-11.87.2.39 14.11c1.61.16 3.24.26 4.85.49 4.22.63 8.44 1.31 12.66 2-5.38-4.49-7.11-10.21-6.03-16.8zM66.47 287.85l21.46 4.73c-5.61-5-8.19-10.94-6.43-18.27l-13.36.31q-.84 6.61-1.67 13.23z"/>
        <path class="cls-5" d="M63.14 299.49c-4.22-.66-8.43-1.35-12.66-2-1.62-.24-3.27-.33-4.91-.5l-.17.09c-.38.66-1.09 1.23-1.12 2-.1 2.15.63 3.13 2.11 4.7 3.43 3.63 18.54 5 28.69 6.22.84.11 1-.34.81-.84-1.01-3.76-12.75-9.67-12.75-9.67zM66.59 288a.16.16 0 0 0-.17.08c-1.69 3.07-1.92 6.14 2.08 7.45 9 2.95 18.15 5.58 27.58 7.91a1.22 1.22 0 0 0 1.29-1.88c-2.51-3.53-6-6.16-9.41-8.83h-.06z"/>
        <path d="M80.92 150.39L41 151.7l-1.57 5.85-1 9.2a282.72 282.72 0 0 0 3.1 47.18 142 142 0 0 1 1.58 21.71c-.06 17.19 1 34.37 1.09 51.56l18.31.3 1.55-14.72L66.49 254l-.93 26.73 15.62.52.13-3.41c1.26-20.84 2.31-30.93 3.11-48.84 0-1.19.1-2.43.15-3.7 1.01-25.11 1.43-49.62-3.65-74.91z" fill="#4534b1"/>
        <path d="M61.62 165.43c6.06-1.41 14.09-2.06 19.62-3.68a2.14 2.14 0 0 0 1.5-2.53c-1.23-5.07-1.87-12.45-3-16.9s-.75-12.64-1-17.18c-.43-9.7 1.3-28.44 1.6-38.15.22-7.57-3.3-7.58-4-16.32a1.47 1.47 0 0 0 0-.21c-.58-6.06-1.16-8.79-1.74-14.85v-.65a1.45 1.45 0 0 0-1.93-1.23c-6.16 2-12.41-.37-17.92-2.22a1.48 1.48 0 0 0-1.53.37l-1 1a1.8 1.8 0 0 0 .75 3c3.23 1 6.34 2.4 7.11 4.6 1.69 4.79 1.68 10.15 2 15.29.1 1.78-1.52 3.63-1.46 5.41.13 3.49 1.36 7 1.27 10.42a132 132 0 0 1-1.61 14.53c-.42 3.07-1.64 6.12-1.53 9.15q.47 12.51 1.85 25c.35 3.14 2.06 6.12 2.8 9.25a17.31 17.31 0 0 1 .14 5.66c-.12 1.22-2.17 5.5-3.65 8.12a1.49 1.49 0 0 0 1.73 2.12z" fill="#efe0f7"/>
        <path d="M67.61 150.12a64.47 64.47 0 0 1-1.77-8.54c-1-8.65-.77-32.38-.34-35.58l.09-.61C62.26 89.73 69 70.31 60.45 56.9c-2.22-1.11-4.47-3-5.55-2.22-3.23 2.38-10 4.44-15.54 8.88-2.91 2.32-11.1 13.32-15.41 23-4 9-4.57 10.25-6.92 17.18-7.2 20.45-8.54 41.74-9.36 62.85-.06 1.65-.51 3.32-.19 5 3.51.91 10 1.87 13.55 2.78 1-6 1.24-9.16 2.45-15.11 2-9.74 2.88-22.32 5-32 1.62-4 9.35-20.09 11.59-23.93-.31.61 1 17.71.85 26.16l-2.05 17.21-3 23.48 7.77 1.38a19.52 19.52 0 0 0 4.58.26c7.92-.48 17.43-.13 23.35-6.13.43-1.9-3.52-13.69-3.96-15.57z" fill="url(#linear-gradient-2)"/>
        <path class="cls-5" d="M71 176.07c-.35 10.4 4 29.93-6.23 88.18"/>
        <path class="cls-13" d="M52.65 86.71c-4 7.75-6.5 7.93-13.14 18.61 5.41-9.6 5.84-14.3 13.14-20.52a1.67 1.67 0 0 1 0 1.91zM62.45 93.18c-.61-3.66-.84-6.23-1.25-10-.21-1.9-1.66-8.31-1.83-10.2-.5-5.5-1.19-8.57-1.67-13.25-.59-5.73-.7-3.33 6.55-3.22.2 0 .57 1.79.58 2.08.4 11.88 2 24.53 1 46.16-1.28-4.56-2.56-6.65-3.38-11.57z"/>
      </g>
    </g>
  </g>
</svg>
